<svg width="414" height="267" viewBox="0 0 414 267" fill="none" xmlns="http://www.w3.org/2000/svg">
<path d="M-11 264C-11 264 19.5 202 98 202C176.5 202 215.5 253.5 311 253.5C406.5 253.5 421.767 183.5 421.767 183.5V-4H-11V264Z" fill="#2196F3"/>
<path d="M-14 264L-8.31581 265.322C-8.30894 265.326 -8.309 265.326 -8.30906 265.326L-8.30809 265.324L-8.30782 265.324L-8.29644 265.301C-8.28514 265.278 -8.2664 265.241 -8.24016 265.19C-8.18766 265.088 -8.10516 264.929 -7.99213 264.717C-7.76606 264.294 -7.41797 263.66 -6.94371 262.846C-5.99499 261.217 -4.54265 258.867 -2.55353 256.038C1.42693 250.375 7.54273 242.809 16.0556 235.242C33.0533 220.133 59.619 205 98 205C134.723 205 162.623 216.439 192.479 228.679C193.977 229.294 195.48 229.91 196.99 230.527C228.571 243.435 262.643 256.5 311 256.5C359.587 256.5 388.093 238.649 404.425 220.507C412.553 211.479 417.605 202.447 420.629 195.658C422.142 192.262 423.151 189.42 423.785 187.411C424.102 186.405 424.326 185.607 424.473 185.051C424.506 184.925 424.535 184.811 424.561 184.71C424.591 184.588 424.617 184.485 424.637 184.401C424.655 184.325 424.669 184.264 424.68 184.22L424.692 184.167L424.695 184.15L424.697 184.144C424.697 184.141 424.698 184.139 421.767 183.5L424.698 184.139L424.767 183.823V183.5V-4V-7H421.767H-11H-14V-4V264Z" stroke="#2196F3" stroke-opacity="0.3" stroke-width="6"/>
</svg>
